<svg id="visual" viewBox="0 0 1920 1080" width="1920" height="1080" xmlns="http://www.w3.org/2000/svg" xmlns:xlink="http://www.w3.org/1999/xlink" version="1.1"><path d="M0 347L29.2 323.5C58.3 300 116.7 253 174.8 244C233 235 291 264 349.2 269.5C407.3 275 465.7 257 523.8 237.2C582 217.3 640 195.7 698.2 192C756.3 188.3 814.7 202.7 872.8 231.5C931 260.3 989 303.7 1047.2 348.7C1105.3 393.7 1163.7 440.3 1221.8 476.3C1280 512.3 1338 537.7 1396.2 494.5C1454.3 451.3 1512.7 339.7 1570.8 282C1629 224.3 1687 220.7 1745.2 251.2C1803.3 281.7 1861.7 346.3 1890.8 378.7L1920 411L1920 0L1890.8 0C1861.7 0 1803.3 0 1745.2 0C1687 0 1629 0 1570.8 0C1512.7 0 1454.3 0 1396.2 0C1338 0 1280 0 1221.8 0C1163.7 0 1105.3 0 1047.2 0C989 0 931 0 872.8 0C814.7 0 756.3 0 698.2 0C640 0 582 0 523.8 0C465.7 0 407.3 0 349.2 0C291 0 233 0 174.8 0C116.7 0 58.3 0 29.2 0L0 0Z" fill="#346984"></path><path d="M0 519L29.2 497.5C58.3 476 116.7 433 174.8 418.7C233 404.3 291 418.7 349.2 429.5C407.3 440.3 465.7 447.7 523.8 433.3C582 419 640 383 698.2 379.3C756.3 375.7 814.7 404.3 872.8 431.3C931 458.3 989 483.7 1047.2 505.3C1105.3 527 1163.7 545 1221.8 573.7C1280 602.3 1338 641.7 1396.2 616.3C1454.3 591 1512.7 501 1570.8 441.7C1629 382.3 1687 353.7 1745.2 371.7C1803.3 389.7 1861.7 454.3 1890.8 486.7L1920 519L1920 409L1890.8 376.7C1861.7 344.3 1803.3 279.7 1745.2 249.2C1687 218.7 1629 222.3 1570.8 280C1512.7 337.7 1454.3 449.3 1396.2 492.5C1338 535.7 1280 510.3 1221.8 474.3C1163.7 438.3 1105.3 391.7 1047.2 346.7C989 301.7 931 258.3 872.8 229.5C814.7 200.7 756.3 186.3 698.2 190C640 193.7 582 215.3 523.8 235.2C465.7 255 407.3 273 349.2 267.5C291 262 233 233 174.8 242C116.7 251 58.3 298 29.2 321.5L0 345Z" fill="#24566f"></path><path d="M0 768L29.2 771.5C58.3 775 116.7 782 174.8 796.3C233 810.7 291 832.3 349.2 846.8C407.3 861.3 465.7 868.7 523.8 852.5C582 836.3 640 796.7 698.2 767.8C756.3 739 814.7 721 872.8 728.2C931 735.3 989 767.7 1047.2 787.5C1105.3 807.3 1163.7 814.7 1221.8 825.5C1280 836.3 1338 850.7 1396.2 838C1454.3 825.3 1512.7 785.7 1570.8 764C1629 742.3 1687 738.7 1745.2 738.7C1803.3 738.7 1861.7 742.3 1890.8 744.2L1920 746L1920 517L1890.8 484.7C1861.7 452.3 1803.3 387.7 1745.2 369.7C1687 351.7 1629 380.3 1570.8 439.7C1512.7 499 1454.3 589 1396.2 614.3C1338 639.7 1280 600.3 1221.8 571.7C1163.7 543 1105.3 525 1047.2 503.3C989 481.7 931 456.3 872.8 429.3C814.7 402.3 756.3 373.7 698.2 377.3C640 381 582 417 523.8 431.3C465.7 445.7 407.3 438.3 349.2 427.5C291 416.7 233 402.3 174.8 416.7C116.7 431 58.3 474 29.2 495.5L0 517Z" fill="#14435a"></path><path d="M0 833L29.2 851C58.3 869 116.7 905 174.8 923C233 941 291 941 349.2 946.3C407.3 951.7 465.7 962.3 523.8 944.3C582 926.3 640 879.7 698.2 861.7C756.3 843.7 814.7 854.3 872.8 877.7C931 901 989 937 1047.2 955C1105.3 973 1163.7 973 1221.8 973C1280 973 1338 973 1396.2 951.3C1454.3 929.7 1512.7 886.3 1570.8 857.5C1629 828.7 1687 814.3 1745.2 810.8C1803.3 807.3 1861.7 814.7 1890.8 818.3L1920 822L1920 744L1890.8 742.2C1861.7 740.3 1803.3 736.7 1745.2 736.7C1687 736.7 1629 740.3 1570.8 762C1512.7 783.7 1454.3 823.3 1396.2 836C1338 848.7 1280 834.3 1221.8 823.5C1163.7 812.7 1105.3 805.3 1047.2 785.5C989 765.7 931 733.3 872.8 726.2C814.7 719 756.3 737 698.2 765.8C640 794.7 582 834.3 523.8 850.5C465.7 866.7 407.3 859.3 349.2 844.8C291 830.3 233 808.7 174.8 794.3C116.7 780 58.3 773 29.2 769.5L0 766Z" fill="#123a4e"></path><path d="M0 1081L29.2 1081C58.3 1081 116.7 1081 174.8 1081C233 1081 291 1081 349.2 1081C407.3 1081 465.7 1081 523.8 1081C582 1081 640 1081 698.2 1081C756.3 1081 814.7 1081 872.8 1081C931 1081 989 1081 1047.2 1081C1105.3 1081 1163.7 1081 1221.8 1081C1280 1081 1338 1081 1396.2 1081C1454.3 1081 1512.7 1081 1570.8 1081C1629 1081 1687 1081 1745.2 1081C1803.3 1081 1861.7 1081 1890.8 1081L1920 1081L1920 820L1890.8 816.3C1861.7 812.7 1803.3 805.3 1745.2 808.8C1687 812.3 1629 826.7 1570.8 855.5C1512.7 884.3 1454.3 927.7 1396.2 949.3C1338 971 1280 971 1221.8 971C1163.7 971 1105.3 971 1047.2 953C989 935 931 899 872.8 875.7C814.7 852.3 756.3 841.7 698.2 859.7C640 877.7 582 924.3 523.8 942.3C465.7 960.3 407.3 949.7 349.2 944.3C291 939 233 939 174.8 921C116.7 903 58.3 867 29.2 849L0 831Z" fill="#113242"></path></svg>